<svg width="150" height="150" viewBox="0 0 150 150" fill="none" xmlns="http://www.w3.org/2000/svg">
<g clip-path="url(#clip0_8091_16266)">
<g clip-path="url(#clip1_8091_16266)">
<path d="M42.9736 58.2217V84.4942L46.3557 84.5071V72.0019H54.5268V68.6921H46.3557V61.5315H56.9924V58.2217H42.9736ZM63.0981 63.5535C64.3245 63.5535 65.3055 62.5618 65.3055 61.3512C65.3055 60.1406 64.3115 59.1489 63.0981 59.1489C61.8718 59.1489 60.8908 60.1406 60.8908 61.3512C60.8908 62.5618 61.8847 63.5535 63.0981 63.5535ZM61.3813 66.8633V84.4942H64.7633V66.8633H61.3813Z" fill="white"/>
<path fill-rule="evenodd" clip-rule="evenodd" d="M77.3235 66.3481C72.8184 66.3481 69.6816 70.1474 69.6816 74.6549C69.6816 79.1625 72.8184 82.9617 77.3235 82.9617C79.3889 82.9617 81.0799 82.1632 82.3192 80.8753V83.2064C82.3192 86.1298 80.0214 88.5639 77.0137 88.5639C75.9294 88.5639 74.858 88.1518 74.006 87.5594L72.3021 90.4957C73.6575 91.3715 75.2711 91.8737 77.0008 91.8737C81.8028 91.8737 85.6883 87.9972 85.6883 83.2064V66.8633H82.3192V68.4345C81.0799 67.1466 79.3889 66.3481 77.3235 66.3481ZM73.0766 74.6549C73.0766 71.8602 75.2194 69.658 77.6979 69.658C80.1763 69.658 82.3192 71.8602 82.3192 74.6549C82.3192 77.4496 80.1763 79.6518 77.6979 79.6518C75.2194 79.6518 73.0766 77.4496 73.0766 74.6549Z" fill="white"/>
<path d="M97.9129 69.658C95.9121 69.658 94.2856 71.358 94.2856 73.3542V84.4942H90.9036V66.8633H94.2856V68.4731C95.2796 67.1981 96.7383 66.3481 98.6487 66.3481C101.024 66.3481 102.844 67.5201 103.903 69.3231C105.077 67.5845 106.988 66.3481 109.298 66.3481C113.158 66.3481 115.559 69.4519 115.572 73.2898V84.4942H112.19V73.3413C112.19 71.3451 110.563 69.6451 108.563 69.6451C106.562 69.6451 104.935 71.3451 104.935 73.3413V84.4942H101.553V73.3413C101.54 71.3451 99.9138 69.658 97.9129 69.658Z" fill="white"/>
<path fill-rule="evenodd" clip-rule="evenodd" d="M133.618 68.8595C132.108 67.3012 130.042 66.3481 127.654 66.3481C122.62 66.3481 119.031 70.611 119.031 75.6852C119.031 80.7594 122.607 85.0223 127.654 85.0223C130.042 85.0223 132.108 84.0564 133.618 82.5109V84.4942H137V66.8633H133.618V68.8595ZM122.426 75.6852C122.426 72.3239 125.008 69.658 128.029 69.658C131.036 69.658 133.631 72.311 133.631 75.6852C133.631 79.0465 131.049 81.7124 128.029 81.7124C125.008 81.6996 122.426 79.0465 122.426 75.6852Z" fill="white"/>
<path d="M24.3726 75.2476C24.3726 72.1181 26.9156 69.5681 30.0653 69.5681C33.202 69.5681 35.7579 72.1052 35.7579 75.2476C35.7579 78.3771 33.2149 80.9271 30.0653 80.9271C26.9285 80.9271 24.3726 78.3771 24.3726 75.2476Z" fill="#1ABCFE"/>
<path d="M13 86.5933C13 83.4638 15.543 80.9138 18.6927 80.9138H24.3854V86.5933C24.3854 89.7229 21.8424 92.2728 18.6927 92.2728C15.543 92.2728 13 89.7357 13 86.5933Z" fill="#0ACF83"/>
<path d="M24.3726 58.2216V69.5678H30.0653C33.202 69.5678 35.7579 67.0307 35.7579 63.8882C35.7579 60.7587 33.2149 58.2087 30.0653 58.2087H24.3726V58.2216Z" fill="#FF7262"/>
<path d="M13 63.9012C13 67.0307 15.543 69.5807 18.6927 69.5807H24.3854V58.2217H18.6927C15.543 58.2217 13 60.7588 13 63.9012Z" fill="#F24E1E"/>
<path d="M13 75.2476C13 78.3771 15.543 80.9271 18.6927 80.9271H24.3854V69.5681H18.6927C15.543 69.5681 13 72.1181 13 75.2476Z" fill="#A259FF"/>
</g>
</g>
<defs>
<clipPath id="clip0_8091_16266">
<rect width="124" height="34" fill="white" transform="translate(13 58)"/>
</clipPath>
<clipPath id="clip1_8091_16266">
<rect width="124" height="34.0953" fill="white" transform="translate(13 58.1934)"/>
</clipPath>
</defs>
</svg>
