<svg width="150" height="150" viewBox="0 0 150 150" fill="none" xmlns="http://www.w3.org/2000/svg">
<g clip-path="url(#clip0_8091_16216)">
<path d="M13.9346 70.5067C13.9346 71.9486 13.3254 73.2241 12.3284 74.2223C11.2206 75.3315 9.61436 75.6088 9.61436 76.5515C9.61436 77.8271 11.6637 77.4389 13.63 79.4076C14.9316 80.7108 15.7347 82.43 15.7347 84.4265C15.7347 88.364 12.5776 91.4973 8.61737 91.4973C4.65712 91.4973 1.5 88.3668 1.5 84.4293C1.5 82.4328 2.30313 80.7136 3.60475 79.4104C5.57103 77.4416 7.62039 77.8298 7.62039 76.5543C7.62039 75.6115 6.01413 75.3342 4.90637 74.2251C3.90938 73.2269 3.30011 71.9513 3.30011 70.454C3.30011 67.5702 5.65411 65.241 8.53429 65.241C9.08817 65.241 9.58666 65.3242 10.0021 65.3242C10.7498 65.3242 11.1375 64.9914 11.1375 64.4646C11.1375 64.1595 10.9991 63.7713 10.9991 63.3554C10.9991 62.4126 11.8022 61.6362 12.7715 61.6362C13.7408 61.6362 14.5162 62.4404 14.5162 63.4109C14.5162 64.4368 13.7131 64.9082 13.1038 65.1301C12.6053 65.2964 12.2176 65.5183 12.2176 66.0174C12.2176 66.9574 13.9346 67.8724 13.9346 70.5067ZM13.3807 84.4293C13.3807 81.6841 11.3591 79.4658 8.61737 79.4658C5.87566 79.4658 3.85399 81.6841 3.85399 84.4293C3.85399 87.1467 5.87566 89.3927 8.61737 89.3927C11.3591 89.3927 13.3807 87.1439 13.3807 84.4293ZM11.7468 70.4512C11.7468 68.7043 10.3344 67.2624 8.61737 67.2624C6.90034 67.2624 5.48794 68.7043 5.48794 70.4512C5.48794 72.1981 6.90034 73.64 8.61737 73.64C10.3344 73.64 11.7468 72.1981 11.7468 70.4512Z" fill="white"/>
<path d="M23.9045 65.5153C24.7907 65.5153 25.4554 66.1808 25.4554 67.0127C25.4554 67.8445 24.8184 68.51 23.9322 68.51C23.0183 68.51 22.5198 67.9277 21.6059 67.9277C20.7197 67.9277 20.0273 68.5655 20.0273 69.6469V78.3815C20.0273 79.0469 19.5011 79.5738 18.8365 79.5738C18.1995 79.5738 17.6733 79.0469 17.6733 78.3815V66.6245C17.6733 65.959 18.1995 65.4321 18.8365 65.4321C20.0273 65.4321 19.8058 66.569 20.9966 66.569C22.1321 66.569 22.5475 65.5153 23.9045 65.5153Z" fill="white"/>
<path d="M26.48 72.5029C26.48 68.3159 29.3602 65.2935 33.3204 65.2935C36.9483 65.2935 39.8285 67.9554 39.8285 71.5879C39.8285 72.4475 39.2746 73.0298 38.4715 73.0298H29.4709C29.0832 73.0298 28.9448 73.1684 28.9448 73.4734C28.9448 74.1667 29.4986 75.4422 30.3295 76.274C31.1603 77.1059 32.2957 77.605 33.902 77.605C35.0928 77.605 36.1452 77.1614 36.9483 76.5791C37.1976 76.385 37.4745 76.274 37.7515 76.274C38.333 76.274 38.8038 76.8009 38.8038 77.3555C38.8038 77.6882 38.6931 77.9655 38.4161 78.2151C37.253 79.1856 35.619 79.7124 33.8466 79.7124C29.554 79.7124 26.48 76.6068 26.48 72.5029ZM36.2837 68.51C35.5082 67.7336 34.5113 67.3454 33.3204 67.3454C32.1296 67.3454 31.0218 67.8168 30.2187 68.6209C29.5817 69.2587 29.1386 70.0905 29.1386 70.6451C29.1386 70.9224 29.3048 71.0333 29.6648 71.0333H36.8652C37.1976 71.0333 37.3637 70.9224 37.3637 70.6451C37.3637 69.9796 36.8376 69.0646 36.2837 68.51Z" fill="white"/>
<path d="M42.2102 72.5029C42.2102 68.3159 45.0904 65.2935 49.0506 65.2935C52.6786 65.2935 55.5587 67.9554 55.5587 71.5879C55.5587 72.4475 55.0049 73.0298 54.2017 73.0298H45.2012C44.8134 73.0298 44.675 73.1684 44.675 73.4734C44.675 74.1667 45.2289 75.4422 46.0597 76.274C46.8905 77.1059 48.026 77.605 49.6322 77.605C50.8231 77.605 51.8754 77.1614 52.6786 76.5791C52.9278 76.385 53.2047 76.274 53.4817 76.274C54.0633 76.274 54.5341 76.8009 54.5341 77.3555C54.5341 77.6882 54.4233 77.9655 54.1463 78.2151C52.9832 79.1856 51.3492 79.7124 49.5768 79.7124C45.2842 79.7124 42.2102 76.6068 42.2102 72.5029ZM52.0139 68.51C51.2385 67.7336 50.2415 67.3454 49.0506 67.3454C47.8598 67.3454 46.752 67.8168 45.9489 68.6209C45.3119 69.2587 44.8688 70.0905 44.8688 70.6451C44.8688 70.9224 45.035 71.0333 45.395 71.0333H52.5955C52.9278 71.0333 53.094 70.9224 53.094 70.6451C53.094 69.9796 52.5678 69.0646 52.0139 68.51Z" fill="white"/>
<path d="M69.4334 79.5738C68.7688 79.5738 68.2426 79.0469 68.2426 78.3814V70.8392C68.2426 68.8705 66.6917 67.3731 64.6978 67.3731C62.6761 67.3731 61.1252 68.8982 61.1252 70.8392V78.3814C61.1252 79.0469 60.599 79.5738 59.9344 79.5738C59.2974 79.5738 58.7712 79.0469 58.7712 78.3814V66.5967C58.7712 65.9589 59.2974 65.4321 59.9067 65.4321C61.0698 65.4321 61.0145 66.4858 61.6237 66.4858C62.233 66.4858 63.0638 65.2935 65.224 65.2935C68.2426 65.2935 70.5966 67.8168 70.5966 70.8392V78.3814C70.5966 79.0469 70.0704 79.5738 69.4334 79.5738Z" fill="white"/>
<path d="M85.3299 79.5739C84.6653 79.5739 84.1391 79.047 84.1391 78.3815V70.8393C84.1391 68.8706 82.5882 67.3732 80.5942 67.3732C78.5726 67.3732 77.0217 68.8983 77.0217 70.8393V78.3815C77.0217 79.047 76.4955 79.5739 75.8309 79.5739C75.1939 79.5739 74.6677 79.047 74.6677 78.3815V59.6923C74.6677 59.0268 75.1939 58.5 75.8309 58.5C76.4955 58.5 77.0217 59.0268 77.0217 59.6923V65.8204C77.0217 66.1531 77.1602 66.3472 77.5202 66.3472C78.1295 66.3472 78.9603 65.2935 81.1204 65.2935C84.1391 65.2935 86.4931 67.8169 86.4931 70.8393V78.3815C86.4931 79.047 85.9669 79.5739 85.3299 79.5739Z" fill="white"/>
<path d="M89.7305 72.5029C89.7305 68.4823 92.943 65.2935 96.9863 65.2935C101.03 65.2935 104.242 68.4823 104.242 72.5029C104.242 76.5236 101.03 79.7124 96.9863 79.7124C92.9458 79.7124 89.7305 76.5236 89.7305 72.5029ZM101.891 72.5029C101.891 69.7023 99.8139 67.4008 96.9891 67.4008C94.192 67.4008 92.1149 69.7023 92.1149 72.5029C92.1149 75.3035 94.192 77.605 96.9891 77.605C99.8139 77.605 101.891 75.3035 101.891 72.5029Z" fill="white"/>
<path d="M108.646 65.4321C109.31 65.4321 109.836 65.959 109.836 66.6245V74.1667C109.836 76.1354 111.387 77.6328 113.381 77.6328C115.403 77.6328 116.954 76.1077 116.954 74.1667V66.6245C116.954 65.959 117.48 65.4321 118.145 65.4321C118.782 65.4321 119.308 65.959 119.308 66.6245V78.4092C119.308 79.047 118.782 79.5738 118.172 79.5738C117.009 79.5738 117.065 78.5201 116.455 78.5201C115.846 78.5201 115.015 79.7124 112.855 79.7124C109.836 79.7124 107.482 77.1891 107.482 74.1667V66.6245C107.485 65.959 108.009 65.4321 108.646 65.4321Z" fill="white"/>
<path d="M123.489 78.6864C122.963 78.3537 122.603 78.021 122.603 77.3832C122.603 76.7732 123.074 76.3018 123.656 76.3018C124.348 76.3018 124.653 76.7177 125.234 77.0227C125.954 77.4387 126.785 77.6605 127.81 77.6605C129.693 77.6605 130.635 76.8009 130.635 75.7472C130.635 74.2498 129.25 73.9726 127.367 73.4734C125.04 72.8634 122.797 72.1702 122.797 69.4805C122.797 67.0958 124.625 65.2935 127.865 65.2935C129.139 65.2935 130.33 65.6262 131.272 66.2085C131.604 66.4026 131.936 66.8185 131.936 67.2899C131.936 67.9 131.438 68.4268 130.801 68.4268C130.385 68.4268 130.053 68.1495 129.638 67.8722C129.222 67.5949 128.613 67.3454 127.782 67.3454C125.927 67.3454 125.123 68.1495 125.123 69.2309C125.123 70.6451 126.48 70.9779 128.419 71.4492C130.69 72.0038 132.933 72.7248 132.933 75.4699C132.933 77.8546 131.161 79.7124 127.754 79.7124C126.093 79.7124 124.597 79.3797 123.489 78.6864Z" fill="white"/>
<path d="M135.149 72.5029C135.149 68.3159 138.029 65.2935 141.989 65.2935C145.617 65.2935 148.497 67.9554 148.497 71.5879C148.497 72.4475 147.943 73.0298 147.14 73.0298H138.14C137.752 73.0298 137.613 73.1684 137.613 73.4734C137.613 74.1667 138.167 75.4422 138.998 76.274C139.829 77.1059 140.964 77.605 142.571 77.605C143.762 77.605 144.814 77.1614 145.617 76.5791C145.866 76.385 146.143 76.274 146.42 76.274C147.002 76.274 147.473 76.8009 147.473 77.3555C147.473 77.6882 147.362 77.9655 147.085 78.2151C145.922 79.1856 144.288 79.7124 142.515 79.7124C138.225 79.7124 135.149 76.6068 135.149 72.5029ZM144.955 68.51C144.18 67.7336 143.183 67.3454 141.992 67.3454C140.801 67.3454 139.693 67.8168 138.89 68.6209C138.253 69.2587 137.81 70.0905 137.81 70.6451C137.81 70.9224 137.976 71.0333 138.336 71.0333H145.537C145.869 71.0333 146.035 70.9224 146.035 70.6451C146.035 69.9796 145.509 69.0646 144.955 68.51Z" fill="white"/>
</g>
<defs>
<clipPath id="clip0_8091_16216">
<rect width="147" height="33" fill="white" transform="translate(1.5 58.5)"/>
</clipPath>
</defs>
</svg>
