<svg width="150" height="150" viewBox="0 0 150 150" fill="none" xmlns="http://www.w3.org/2000/svg">
<path d="M11.0756 66.3564C11.1025 66.8271 11.4925 67.1902 11.9498 67.1902C12.407 67.1902 12.797 66.8271 12.8239 66.3564L13.2543 58.7445C13.2812 58.3814 13.1467 58.0048 12.8777 57.7224C12.6222 57.4669 12.286 57.3324 11.9498 57.3324C11.6136 57.3324 11.2773 57.4669 11.0218 57.7224C10.7394 58.0048 10.6184 58.3814 10.6453 58.7445L11.0756 66.3564Z" fill="white"/>
<path d="M15.8365 70.4179C15.4196 70.1758 14.8816 70.3237 14.6396 70.7406C14.1016 71.6686 13.093 72.3007 11.9364 72.3007C10.7798 72.3007 9.77116 71.6686 9.23321 70.7406C8.99114 70.3237 8.4532 70.1758 8.03629 70.4179C7.61938 70.6599 7.47145 71.1979 7.71352 71.6148C8.54734 73.0672 10.1208 74.049 11.9229 74.049C13.7251 74.049 15.2985 73.0672 16.1324 71.6148C16.4013 71.1979 16.2668 70.6599 15.8365 70.4179Z" fill="white"/>
<path d="M8.34552 67.0962C8.49346 67.54 8.96416 67.7955 9.40796 67.6744C9.85177 67.5534 10.1342 67.1096 10.0401 66.6524L8.65484 59.9818C8.5876 59.6456 8.37242 59.3229 8.04966 59.1346C7.74034 58.9597 7.40412 58.9194 7.0948 59.0135C6.78549 59.0942 6.50306 59.296 6.32823 59.6053C6.13995 59.928 6.11305 60.3046 6.22064 60.6408L8.34552 67.0962Z" fill="white"/>
<path d="M6.0459 68.6292C6.30143 69.0192 6.81248 69.1403 7.21594 68.9116C7.61939 68.683 7.76733 68.172 7.55215 67.7551L4.86243 62.416C4.71449 62.1201 4.43207 61.878 4.08241 61.7839C3.75964 61.7032 3.42342 61.7435 3.15445 61.9049C2.88548 62.0663 2.6703 62.3218 2.58961 62.6446C2.49547 62.9943 2.56271 63.3574 2.75099 63.6263L6.0459 68.6292Z" fill="white"/>
<path d="M14.4916 67.6744C14.9354 67.7954 15.4061 67.5399 15.5541 67.0961L17.6924 60.6273C17.8 60.2911 17.7731 59.9145 17.5848 59.5917C17.41 59.2959 17.1276 59.0807 16.8182 59C16.5089 58.9193 16.1593 58.9462 15.8634 59.121C15.5406 59.3093 15.3254 59.6186 15.2582 59.9683L13.873 66.6388C13.7654 67.0961 14.0478 67.5533 14.4916 67.6744Z" fill="white"/>
<path d="M16.6837 68.9116C17.0872 69.1403 17.5982 69.0192 17.8538 68.6292L21.1352 63.6263C21.3235 63.3439 21.3908 62.9942 21.2966 62.6446C21.2159 62.3218 21.0007 62.0663 20.7318 61.9049C20.4628 61.7435 20.1266 61.6897 19.8038 61.7839C19.4542 61.878 19.1852 62.1201 19.0238 62.416L16.3341 67.7551C16.1323 68.172 16.2803 68.6696 16.6837 68.9116Z" fill="white"/>
<path d="M23.6636 89.5553L18.9835 83.3421C18.1362 82.2258 17.6521 80.8406 17.6521 79.3613C17.6521 77.8954 18.1362 76.4967 18.9835 75.3805L23.6636 69.1672C24.1478 68.3334 23.8654 67.2575 23.0181 66.7734C22.1843 66.2892 21.1084 66.5716 20.6242 67.4189L17.7059 72.489C16.4821 74.6139 14.2496 75.8108 11.9499 75.7974C9.65016 75.8108 7.41768 74.6139 6.19386 72.489L3.27551 67.4189C2.79136 66.5851 1.71547 66.2892 0.881652 66.7734C0.0478377 67.2575 -0.24803 68.3334 0.23612 69.1672L4.91624 75.3805C5.7635 76.4967 6.24765 77.8819 6.24765 79.3613C6.24765 80.8272 5.7635 82.2258 4.91624 83.3421L0.23612 89.5553C-0.24803 90.3891 0.034389 91.465 0.881652 91.9492C1.71547 92.4333 2.79136 92.1509 3.27551 91.3036L6.19386 86.247C7.41768 84.1221 9.66361 82.9251 11.9499 82.9386C14.2496 82.9251 16.4821 84.1221 17.7059 86.247L20.6242 91.3171C21.1084 92.1509 22.1843 92.4468 23.0181 91.9626C23.8519 91.465 24.1478 90.3891 23.6636 89.5553Z" fill="white"/>
<path d="M148.279 76.806C148.453 76.806 148.615 76.7253 148.615 76.4698C148.615 76.2277 148.48 76.1336 148.279 76.1336H147.646V76.7926H148.279V76.806ZM149.032 77.9357H148.561L148.171 77.1826H147.646V77.9357H147.243V75.7839H148.279C148.736 75.7839 149.018 76.0663 149.018 76.4833C149.018 76.7926 148.843 77.0481 148.574 77.1422L149.032 77.9357ZM148.036 75.2998C147.176 75.2998 146.463 76.0126 146.463 76.9002C146.463 77.7878 147.162 78.5005 148.036 78.5005C148.911 78.5005 149.61 77.7878 149.61 76.9002C149.61 76.0126 148.897 75.2998 148.036 75.2998ZM148.036 78.8502C146.947 78.8502 146.073 77.9761 146.073 76.8867C146.073 75.8108 146.947 74.9232 148.036 74.9232C149.126 74.9232 150 75.7974 150 76.8867C150 77.9761 149.112 78.8502 148.036 78.8502Z" fill="white"/>
<path d="M127.985 80.074C126.559 79.8454 125.698 79.6437 125.698 79.0385C125.698 78.6081 126.263 78.124 127.621 78.124C128.428 78.124 128.993 78.3526 129.303 78.6888C129.518 78.9174 129.867 78.9981 130.177 78.9174L131.898 78.4467C132.167 78.3795 132.302 78.0702 132.167 77.8281C131.374 76.3756 129.706 75.488 127.621 75.488C124.286 75.488 122.699 77.3708 122.699 79.1864C122.699 81.7551 125.456 82.3199 127.514 82.6293C129.531 82.9386 129.935 83.2075 129.935 83.8531C129.935 84.5255 129.034 84.8886 127.85 84.8886C127.137 84.8886 126.223 84.6466 125.685 84.0279C125.456 83.7589 125.093 83.6245 124.743 83.7186L123.035 84.1758C122.78 84.2431 122.632 84.5255 122.753 84.781C123.546 86.5294 125.443 87.5783 127.85 87.5783C130.809 87.5783 132.907 85.9645 132.907 83.6782C132.907 81.1634 130.849 80.5447 127.985 80.074Z" fill="white"/>
<path d="M101.303 78.2047H95.1296V74.5063H102.782C103.051 74.5063 103.279 74.2912 103.279 74.0087V72.2604C103.279 71.9914 103.051 71.7628 102.782 71.7628H92.6685C92.3995 71.7628 92.1709 71.9914 92.1709 72.2604V86.7984C92.1709 87.0674 92.3995 87.296 92.6685 87.296H94.632C94.901 87.296 95.1296 87.0674 95.1296 86.7984V80.9617H101.303C101.571 80.9617 101.8 80.7465 101.8 80.4641V78.7023C101.8 78.4199 101.571 78.2047 101.303 78.2047Z" fill="white"/>
<path d="M107.704 72.2604C107.704 71.9914 107.475 71.7628 107.206 71.7628H105.243C104.974 71.7628 104.745 71.978 104.745 72.2604V86.7984C104.745 87.0674 104.961 87.296 105.243 87.296H107.206C107.475 87.296 107.704 87.0808 107.704 86.7984V72.2604Z" fill="white"/>
<path d="M115.114 84.808C113.487 84.808 112.156 83.3959 112.156 81.5669C112.156 79.6841 113.473 78.2585 115.114 78.2585C116.742 78.2585 118.073 79.7379 118.073 81.5669C118.059 83.3555 116.742 84.808 115.114 84.808ZM120.521 75.7705H118.692C118.423 75.7705 118.194 75.9857 118.194 76.2681V77.0078C117.293 76.0664 116.069 75.5284 114.657 75.5284C111.658 75.5284 109.17 78.124 109.17 81.5534C109.17 84.9559 111.658 87.5515 114.657 87.5515C116.069 87.5515 117.293 87.0136 118.194 86.0722V86.8118C118.194 87.0808 118.409 87.3094 118.692 87.3094H120.521C120.79 87.3094 121.018 87.0943 121.018 86.8118V76.2816C121.018 75.9857 120.79 75.7705 120.521 75.7705Z" fill="white"/>
<path d="M140.922 80.2623L144.526 76.4967C144.782 76.2278 144.594 75.7705 144.217 75.7705H141.554C141.299 75.7705 141.043 75.8781 140.882 76.0664L137.372 79.953V72.2604C137.372 71.978 137.143 71.7628 136.874 71.7628H134.924C134.642 71.7628 134.427 71.9914 134.427 72.2604V86.7984C134.427 87.0674 134.642 87.296 134.924 87.296H136.888C137.157 87.296 137.385 87.0808 137.385 86.7984V83.9876L138.865 82.441L141.46 86.8522C141.622 87.1346 141.917 87.296 142.24 87.296H144.647C145.011 87.296 145.226 86.8925 145.024 86.5966L140.922 80.2623Z" fill="white"/>
<path d="M40.851 72.2604C40.851 71.9914 40.6224 71.7628 40.3535 71.7628H38.39C38.121 71.7628 37.8924 71.978 37.8924 72.2604L37.8789 78.1509H31.2622L31.2756 72.2604C31.2756 71.9914 31.0605 71.7628 30.778 71.7628H28.7876C28.5187 71.7628 28.29 71.978 28.29 72.2604V86.7984C28.29 87.0674 28.5187 87.296 28.7876 87.296H30.778C31.047 87.296 31.2756 87.0674 31.2756 86.7984L31.2622 80.9079H37.8789L37.8924 86.7984C37.8924 87.0674 38.121 87.296 38.39 87.296H40.3535C40.6224 87.296 40.851 87.0808 40.851 86.7984V72.2604Z" fill="white"/>
<path d="M60.1228 84.808C58.4955 84.808 57.1641 83.3959 57.1641 81.5669C57.1641 79.6841 58.482 78.2585 60.1228 78.2585C61.7635 78.2585 63.0815 79.7379 63.0815 81.5669C63.068 83.3555 61.75 84.808 60.1228 84.808ZM66.0267 72.2604C66.0267 71.9914 65.7981 71.7628 65.5291 71.7628H63.5656C63.2966 71.7628 63.068 71.978 63.068 72.2604V76.8733C62.1669 76.026 61.0104 75.5284 59.6655 75.5284C56.6665 75.5284 54.1785 78.124 54.1785 81.5534C54.1785 84.9559 56.6665 87.5515 59.6655 87.5515C61.0776 87.5515 62.288 87.0136 63.2025 86.0722V86.8118C63.2025 87.0808 63.4177 87.3094 63.7001 87.3094H65.5291C65.7981 87.3094 66.0267 87.0942 66.0267 86.8118V72.2604Z" fill="white"/>
<path d="M73.9479 75.4881C72.7241 75.4208 71.5272 75.8646 70.6934 76.9002V76.2546C70.6934 75.9857 70.4782 75.757 70.1958 75.757H68.3667C68.0978 75.757 67.8691 75.9857 67.8691 76.2546V86.7849C67.8691 87.0539 68.0843 87.2825 68.3667 87.2825H70.3302C70.5992 87.2825 70.8278 87.0539 70.8278 86.7849V81.6206C70.8278 80.7061 70.9354 79.7647 71.5675 79.1192C72.1324 78.514 72.9393 78.3257 73.8807 78.3661C74.1631 78.3795 74.4052 78.1509 74.4052 77.8685V75.9857C74.4052 75.7301 74.2034 75.5015 73.9479 75.4881Z" fill="white"/>
<path d="M80.4975 84.8483C78.9375 84.8483 77.6599 83.5034 77.6599 81.5534C77.6599 79.563 78.9375 78.1778 80.4975 78.1778C82.0576 78.1778 83.3352 79.563 83.3352 81.5534C83.3352 83.5034 82.0576 84.8483 80.4975 84.8483ZM80.4975 75.4746C77.2968 75.4746 74.7012 78.0971 74.7012 81.5399C74.7012 84.9828 77.2968 87.5649 80.4975 87.5649C83.6983 87.5649 86.3208 84.9962 86.3208 81.5399C86.3073 78.0971 83.6983 75.4746 80.4975 75.4746Z" fill="white"/>
<path d="M53.5599 75.7705H51.7309C51.4619 75.7705 51.2198 75.9319 51.1257 76.1874L48.3015 83.5304L45.4773 76.1874C45.3831 75.9319 45.1411 75.7705 44.8721 75.7705H43.0431C42.6934 75.7705 42.4513 76.1202 42.5858 76.4429L46.8087 87.4439L46.459 88.3719C46.0287 89.5016 45.41 89.9454 44.2535 89.9723C43.9845 89.9723 43.7559 90.1874 43.7559 90.4699V92.1644C43.7559 92.4334 43.971 92.6485 44.24 92.662C46.4052 92.7292 47.9653 92.2316 49.0681 89.394L54.0306 76.4429C54.1516 76.1067 53.9096 75.7705 53.5599 75.7705Z" fill="white"/>
</svg>
