<svg width="150" height="150" viewBox="0 0 150 150" fill="none" xmlns="http://www.w3.org/2000/svg">
<path d="M10.1311 55.5011C9.56692 55.5044 9.02674 55.7305 8.62777 56.1303C8.22881 56.5302 8.00324 57.0717 8 57.6372V72.4545C8 73.6266 8.96288 74.5219 10.0627 74.5219H17.4885C20.8575 74.5219 25.535 73.8324 26.8401 67.7674L28.9028 58.1186C28.9632 57.8022 28.9536 57.4764 28.8748 57.1641C28.7961 56.8517 28.65 56.5605 28.4468 56.3109C28.2436 56.0613 27.9884 55.8593 27.699 55.7192C27.4096 55.5791 27.093 55.5043 26.7717 55.5L10.1311 55.5011ZM38.5967 62.52C33.5769 62.52 30.6209 64.6572 29.2451 69.2049L25.7381 80.0257C24.4318 83.6094 22.3691 85.0571 18.668 85.0571H10.0043C9.47569 85.058 8.96897 85.2688 8.59518 85.6435C8.22138 86.0182 8.01099 86.526 8.0101 87.0559V92.5698C8.0101 93.6046 8.83495 94.5 9.93586 94.5H45.0058C45.5344 94.4991 46.0411 94.2882 46.4149 93.9136C46.7887 93.5389 46.9991 93.031 47 92.5012V64.4615C47 63.4267 46.1752 62.5313 45.0742 62.5313L38.5967 62.52Z" fill="#778EB1"/>
<path d="M135.065 61.8715C135.065 57.6495 137.949 55.652 142 55.5V58.9549H141.299C139.508 58.9549 138.571 60.4141 138.571 62.1773V64.9236H141.842V67.9941H138.571V85.0214H135.065V67.9025H132.026V64.8321H135.065V61.8715ZM122.985 72.6976C122.985 69.2427 120.941 67.7066 118.525 67.7066C115.641 67.7066 113.459 69.5485 113.459 72.8331V84.9647H109.973V72.6976C109.973 69.2427 107.929 67.7066 105.513 67.7066C102.629 67.7066 100.447 69.5485 100.447 72.8331V84.9647H96.9403V64.942H100.447V67.3221H100.525C101.46 65.2495 103.954 64.4806 106.057 64.4806C108.102 64.4806 110.343 65.0188 111.98 67.9355C113.225 65.4015 115.877 64.4806 118.527 64.4806C122.89 64.4806 126.243 67.0914 126.243 72.3113V84.9811H122.736V72.7141L122.985 72.6976ZM80.7447 74.3876C76.4593 74.3876 75.0581 76.4601 75.0581 78.3789C75.0581 80.2977 76.4612 82.3703 80.7447 82.3703C85.0282 82.3703 86.4313 80.2977 86.4313 78.3789C86.4313 76.4601 84.9502 74.3876 80.7447 74.3876ZM86.277 71.546C86.277 68.2449 82.9264 67.4759 80.2745 67.4759C78.405 67.4759 76.6136 67.9373 74.7422 68.8582L73.2611 65.9398C76.2995 64.6344 78.7154 64.4018 80.5087 64.4018C85.3404 64.4018 89.86 66.4744 89.86 71.2348V84.8859H86.5892V82.7365C84.7978 84.5784 82.8483 85.3473 80.1965 85.3473C75.2867 85.3473 71.3878 82.601 71.3878 78.1299C71.3878 74.4443 74.5043 71.2201 80.1166 71.2201C82.2202 71.2201 84.48 71.8335 86.3514 73.5234V71.5094L86.277 71.546ZM64.1439 56.1115C65.469 56.1115 66.5598 57.1863 66.5598 58.5686C66.5598 59.9509 65.469 61.0257 64.1439 61.0257C62.8189 61.0257 61.7281 59.9509 61.7281 58.5686C61.7281 57.1863 62.8189 56.1115 64.1439 56.1115ZM62.4287 64.9401H65.9354V87.4364C65.9354 91.966 63.5976 94.1155 59 94.5V91.2941C61.572 91.2172 62.4287 89.9118 62.4287 87.8392V64.9401Z" fill="white"/>
</svg>
