<svg width="150" height="150" viewBox="0 0 150 150" fill="none" xmlns="http://www.w3.org/2000/svg">
<path fill-rule="evenodd" clip-rule="evenodd" d="M5.77852 64.2901C5.65121 63.9092 5.58756 63.4654 5.58756 62.9571H1.8413V63.3381L2.60328 63.6555C3.80991 64.1001 3.30255 65.4331 3.04793 67.0217C2.60328 70.0059 2.22229 72.9902 1.77858 75.9764C1.46125 77.9459 1.33394 79.659 0.444646 79.9763L0 80.23V80.6746H4.06453V80.1663C3.11158 80.04 2.98521 79.468 3.11158 78.7697L4.82651 67.6563L8.38274 75.2134C9.77939 78.325 10.606 80.1663 10.9224 80.9283H11.4307C12.2563 78.7687 13.3993 76.2291 14.7332 73.3712L18.2894 65.6877L20.3217 78.7697C20.449 79.468 20.3217 80.04 19.3688 80.1663V80.6746H23.4333V80.23L22.9877 79.9763C22.0984 79.658 21.972 77.945 21.6547 75.9764C21.2101 72.9912 20.8291 70.0069 20.3844 67.0217C20.1307 65.4341 19.6224 64.1001 20.8291 63.6555L21.5911 63.3381V62.9571H17.7811C17.8448 63.5282 17.7811 63.9092 17.5902 64.3538C16.5109 66.8307 15.5589 68.9893 14.6696 70.8316L11.748 77.1184L8.57277 70.3869C7.5571 68.2283 6.60416 66.196 5.77852 64.2901ZM48.5178 62.9571L48.5806 63.3381L49.4062 63.6555C50.6765 64.1001 50.3582 65.4331 50.2955 67.0217C50.2955 70.0059 50.2955 72.9902 50.2318 75.9764C50.2318 77.9459 50.3582 79.659 49.5326 79.9763L49.0879 80.23L49.1516 80.6746H53.2161L53.1525 80.1663C52.1995 80.04 51.9458 79.468 52.0095 78.7697L52.1368 67.6563L52.2641 64.2265C52.9347 63.9777 53.6438 63.8487 54.3591 63.8455C55.3757 63.8455 56.2013 64.1628 56.7723 64.7348C57.9153 66.0051 57.8517 69.6886 56.7087 70.8952C56.0104 71.5945 55.1211 71.9746 53.9781 71.9746C53.7881 71.9746 53.4707 71.9109 53.0888 71.9109L52.9624 72.3555C53.9154 73.3085 54.2954 73.7522 55.0574 74.7697L58.2963 78.9606C58.6136 79.3426 60.1385 80.7392 61.4079 80.9938C61.8525 81.0575 62.8055 81.1202 63.8848 81.0575V80.6756C62.4245 80.6756 61.5988 80.1673 60.6459 78.897L58.1709 75.7863C57.0916 74.3878 56.4559 73.6895 55.7576 72.4838C57.0906 72.1655 58.1072 71.5308 58.8055 70.6416C60.3932 68.6729 60.2022 64.5457 57.8526 63.4027C57.2806 63.0854 56.3286 62.9581 55.122 62.9581C54.6774 62.9581 53.979 62.9581 52.9634 63.0208C52.1377 63.0208 51.4394 63.0845 50.9938 63.0845C50.2964 63.0835 49.8518 63.0208 48.5178 62.9571ZM97.7977 71.3399C97.7977 72.8638 97.7359 73.6895 97.7359 75.9764C97.7359 77.9459 97.7977 79.659 96.9739 79.9763L96.5293 80.23L96.6556 80.6746H100.72L100.594 80.1663C99.7036 80.04 99.449 79.468 99.5135 78.7697L99.6418 71.3399L99.5135 64.7984C99.4499 64.1001 99.7036 63.5291 100.594 63.3381L100.72 62.8308H96.6556L96.5293 63.3381L96.9739 63.5291C97.7986 63.9101 97.7359 65.5614 97.7359 67.53C97.7359 70.1333 97.7977 69.625 97.7977 71.3399ZM106.245 64.7357C106.88 64.1638 107.198 63.6564 107.198 62.8308H110.436L110.246 63.3381L109.676 63.5291C109.168 63.7201 108.151 64.2274 107.579 64.9258L102.372 70.1333C103.134 71.4026 105.612 74.3878 106.691 75.7863L109.168 78.896C110.12 80.1663 110.944 80.6746 112.405 80.6746V81.0566C111.262 81.1183 110.374 81.0566 109.929 80.9929C108.659 80.7392 107.134 79.3416 106.818 78.9597L103.578 74.7688C102.816 73.7522 101.418 72.0382 100.404 71.0853L100.53 70.6397C102.815 68.3556 104.912 66.0687 106.245 64.7357ZM30.102 78.7697C30.0384 79.468 30.102 80.04 31.054 80.1663V80.6746H27.1805V80.23L27.6251 79.9763C28.0698 79.8499 28.3235 79.3416 28.5781 78.6433C29.0227 77.5631 29.6574 76.2918 30.1657 75.0861L33.4682 67.3381C34.3575 65.2431 34.9285 63.7818 35.2468 62.8298H36.0725L42.1047 77.4985C42.2956 77.8804 42.4856 78.3887 42.613 78.6433C42.8666 79.3416 43.1213 79.8499 43.5659 79.9763L44.0105 80.23V80.6746H39.184V80.1663C40.0733 80.04 40.2634 79.468 40.137 78.7697C40.0733 78.6433 39.946 78.325 39.8833 78.1996L39.185 76.3564H30.9923L30.8659 76.7383C30.6731 77.1193 30.1648 78.3896 30.102 78.7697ZM31.435 75.3398H38.8021L35.1186 66.196L31.435 75.3398ZM115.581 78.7697C115.517 79.468 115.581 80.04 116.534 80.1663V80.6746H112.659V80.23L113.104 79.9763C113.548 79.8499 113.804 79.3416 114.057 78.6433C114.501 77.5631 115.202 76.2918 115.71 75.0861L118.948 67.3381C119.836 65.2431 120.473 63.7818 120.789 62.8298H121.551L127.584 77.4985C127.774 77.8804 127.964 78.3887 128.093 78.6433C128.346 79.3416 128.601 79.8499 129.046 79.9763L129.49 80.23V80.6746H124.664V80.1663C125.617 80.04 125.744 79.468 125.617 78.7697C125.553 78.6433 125.427 78.325 125.363 78.1996L124.665 76.3564H116.472L116.345 76.7383C116.153 77.1193 115.644 78.3896 115.581 78.7697ZM116.913 75.3398H124.281L120.596 66.196L116.913 75.3398ZM81.3505 64.7357C81.4141 64.0365 81.3505 63.5291 80.3975 63.3381V62.8308H84.272V63.3381L83.8274 63.5291C83.3827 63.7201 83.1908 64.2274 82.8744 64.9258L73.4114 82.6442C72.2048 84.8674 71.3155 87.407 67.823 87.1524L67.8866 86.7724C70.2999 86.6441 72.0785 82.0722 73.1578 79.9763L66.299 64.9248C66.0453 64.2265 65.7916 63.7182 65.4097 63.5282L64.9023 63.3372V62.8298H69.7288V63.3372C68.8405 63.5282 68.7132 64.0992 68.8405 64.7975C68.8405 64.9248 68.9669 65.1785 69.0305 65.3695L74.5554 77.4985L81.3505 64.7357ZM147.078 64.7357C147.142 64.0365 147.017 63.5291 146.125 63.3381V62.8308H150V63.3381L149.555 63.5291C149.111 63.7201 148.857 64.2274 148.602 64.9258L139.077 82.6442C137.934 84.8674 137.043 87.407 133.552 87.1524V86.7724C136.028 86.6441 137.745 82.0722 138.887 79.9763L132.027 64.9248C131.773 64.2265 131.521 63.7182 131.074 63.5282L130.629 63.3372V62.8298H135.456V63.3372C134.503 63.5282 134.377 64.0992 134.503 64.7975C134.567 64.9248 134.693 65.1785 134.757 65.3695L140.218 77.4985L147.078 64.7357Z" fill="white"/>
</svg>
