<svg width="150" height="150" viewBox="0 0 150 150" fill="none" xmlns="http://www.w3.org/2000/svg">
<path d="M78.9492 82.108C78.9492 82.7081 78.6872 83.1391 77.8674 83.1391H72.6272C71.9511 83.1391 71.5707 82.9447 71.5707 82.3193C71.5707 81.6939 71.8327 81.3811 72.6272 81.3811H78.9492V82.0995V82.108ZM102.04 79.6316V78.9385C102.04 78.3131 102.302 77.9074 103.147 77.9074H108.387C109.106 77.9074 109.469 78.1271 109.469 78.7948C109.469 79.3696 109.182 79.6316 108.438 79.6316H102.048H102.04ZM115.783 74.9915V86.0466H121.065V78.0004H125.392C126.855 78.0004 127.607 78.4568 127.607 79.8767V86.055H132.889V79.4456C132.889 76.3438 131.182 75 126.356 75H115.783V74.9915ZM102.758 74.9915C98.5069 74.9915 96.7996 76.4114 96.7996 79.6062V81.7953C96.7996 84.559 98.5069 86.0466 102.353 86.0466H113.551V83.1391H103.409C102.403 83.1391 102.065 82.8518 102.065 82.108V81.6516H110.069C112.833 81.6516 114.396 80.7895 114.396 78.7188V78.2117C114.396 76.3353 113.458 74.9915 108.776 74.9915H102.767H102.758ZM85.7699 86.0466H91.0523V78.7948C91.0523 78.3131 91.2468 78.0004 91.8891 78.0004H95.9967V75H90.1142C86.9701 75 85.7615 76.1748 85.7615 78.1441V86.0466H85.7699ZM67.6997 74.9915V77.899H77.6223C78.6112 77.899 78.9408 78.237 78.9408 78.9554V79.3865H70.9622C67.6237 79.3865 66.6095 80.7557 66.6095 82.5137V82.9447C66.6095 85.3704 68.5534 86.0466 72.3736 86.0466H78.2393C82.3976 86.0466 84.1979 85.1084 84.1979 81.846V79.2766C84.1979 76.5128 82.4906 75 78.6196 75H67.6913L67.6997 74.9915ZM36.0812 81.1445C36.0812 84.6267 37.8561 86.0466 42.4455 86.0466H52.5117V83.0715H43.2146C42.1074 83.0715 41.3636 82.5644 41.3636 80.9839V80.0204C41.3636 78.6005 42.0567 78.0004 43.1892 78.0004H52.5117V75H42.3018C37.7885 75 36.0812 76.9016 36.0812 79.9274V81.1529V81.1445ZM54.1006 73.2419V86.0466H65.5868V83.0462H59.3915V73.2419H54.1091H54.1006ZM21.1129 80.4007V73.2419H18.1378C16.2868 73.2419 15.2303 73.9857 14.1231 74.8478L0 86.0466H6.36428L15.7375 78.4568V86.0466H20.1324L29.2182 78.4061V86.0466H34.6021V73.2419H31.6693C30.0803 73.2419 28.9816 73.8927 27.8744 74.8056L21.1213 80.4007H21.1129Z" fill="white"/>
<path d="M145.609 63.9448C142.659 63.9448 138.501 64.8238 133.996 66.472C130.235 67.8496 126.516 69.5991 122.502 72.1347C124.851 71.1712 129.5 70.0894 133.32 70.0894C138.484 70.0894 142.169 72.0671 136.735 79.0061C152.76 68.5089 152.32 63.9448 145.609 63.9448Z" fill="#FF8000"/>
</svg>
