<svg width="150" height="150" viewBox="0 0 150 150" fill="none" xmlns="http://www.w3.org/2000/svg">
<path fill-rule="evenodd" clip-rule="evenodd" d="M56.1195 86.326C56.0823 86.7331 55.859 86.9367 55.4309 86.9552L44.3762 87.3808C44.0412 87.3994 43.7993 87.2513 43.7062 86.9552L38.0114 70.7435L32.5585 86.9182C32.4282 87.2698 32.2049 87.4179 31.8699 87.3994L21.2618 86.9737C20.8896 86.9552 20.6849 86.7701 20.6663 86.4L17 48.7948C17 48.3506 17.2419 48.1101 17.6886 48.1101H26.752C27.1614 48.1101 27.3847 48.3136 27.4033 48.7393L29.0969 72.6497L33.6193 52.6071C33.6937 52.2925 33.8984 52.126 34.2148 52.126H41.8266C42.1988 52.126 42.4035 52.2925 42.4779 52.6071L46.7956 72.6312L48.6567 48.4987C48.6753 48.0731 48.9172 47.8695 49.3639 47.8695L58.4645 48.3321C58.8925 48.3506 59.0972 48.5727 59.0972 48.9799L56.1195 86.326ZM78.0614 74.5744C77.4845 74.5188 76.9076 74.4818 76.3121 74.4633C72.4038 74.4633 70.4497 75.5552 70.4497 77.739C70.4497 79.5896 71.8641 80.4964 74.7115 80.4964C75.7165 80.4964 76.7215 80.4224 77.7451 80.2373L78.0614 74.5744ZM86.8643 67.4864C86.8643 69.0039 86.5479 75.0925 85.8779 85.7708C85.8779 86.2149 85.8407 86.8442 85.7476 87.6769C85.6732 88.1026 85.4313 88.3247 85.0404 88.3247L77.9498 88.3802C77.4473 88.3802 77.2054 88.1396 77.2054 87.6769C77.2054 87.6399 77.2612 86.7516 77.3729 84.9935C75.0838 85.7893 72.6644 86.2149 70.2264 86.2149C67.0812 86.2149 64.5501 85.5857 62.6519 84.3088C60.4186 82.8097 59.3019 80.589 59.3019 77.6094C59.3019 74.1672 61.1444 71.6318 64.8293 69.9662C67.6023 68.7448 70.9522 68.1156 74.9349 68.1156C75.8468 68.1156 76.982 68.2081 78.3964 68.3747C78.4337 67.4494 78.4523 66.9497 78.4523 66.8757C78.4523 65.8578 78.0987 64.9695 77.3915 64.2477C76.7215 63.5445 75.7537 63.1558 74.7674 63.1744C73.446 63.1744 72.4224 63.6555 71.7152 64.6179C71.008 65.5802 70.5986 66.0614 70.5055 66.0984L62.2424 67.2088C61.6841 67.2828 61.3863 67.0607 61.3863 66.524C61.4236 66.45 61.4608 66.376 61.4794 66.3019C62.3541 63.3779 63.9174 61.1016 66.1693 59.4175C68.4212 57.7334 71.0825 56.9006 74.1346 56.9006C82.6211 56.9192 86.8643 60.4539 86.8643 67.4864ZM107.001 77.2393L106.945 67.9675C102.776 68.0601 100.692 69.7997 100.692 73.1864C100.692 75.9623 102.33 77.3503 105.605 77.3503C105.903 77.3503 106.368 77.3318 107.001 77.2393ZM117.404 56.364C117.479 64.8955 117.423 72.9828 117.181 80.6075C117.051 84.2162 116.976 86.2149 116.958 86.5481C116.865 88.8799 116.641 90.8416 116.325 92.4701C115.674 95.9494 114.092 98.6513 111.616 100.594C109.123 102.538 106.07 103.5 102.479 103.5C100.376 103.5 98.7379 103.259 97.584 102.797C97.249 102.649 97.0815 102.427 97.0815 102.112V93.6175C97.0815 93.1734 97.342 92.9328 97.8445 92.9328C98.1237 92.9328 98.5517 92.9698 99.1659 93.0438C99.78 93.1179 100.245 93.1549 100.543 93.1549C104.935 93.1549 107.131 91.5633 107.131 88.3802V84.4568C105.68 84.938 104.172 85.1786 102.646 85.1601C98.589 85.1601 95.2949 83.9016 92.8011 81.3847C90.3072 78.8864 89.0417 75.6107 89.0417 71.5763C89.0417 67.3383 90.5306 63.9886 93.4897 61.5088C96.2626 59.1769 99.8359 58.011 104.172 58.011C105.01 58.011 105.884 58.1036 106.852 58.2886V56.2344C106.852 55.8088 107.075 55.5867 107.522 55.5867L116.716 55.6422C117.162 55.6237 117.404 55.8643 117.404 56.364ZM131.939 47.1847L131.548 76.0734C131.548 76.5175 131.325 76.7211 130.86 76.7211L121.424 76.6286C120.959 76.6286 120.754 76.388 120.773 75.9438L121.368 47.1847C121.387 46.7406 121.61 46.5 122.057 46.5H131.288C131.734 46.5185 131.958 46.7406 131.939 47.1847ZM133 83.513C133 84.8084 132.218 85.8078 130.618 86.5295C129.352 87.1032 127.975 87.3994 126.579 87.3994C125.146 87.4179 123.713 87.1218 122.411 86.511C120.829 85.7523 120.047 84.6974 120.047 83.3649C120.047 82.125 120.847 81.1256 122.448 80.4224C123.713 79.8487 125.09 79.5526 126.486 79.5526C127.919 79.5526 129.278 79.8672 130.581 80.4779C132.2 81.1997 133 82.236 133 83.513Z" fill="#00BF8F"/>
</svg>
